HIERARCHY
ROOT Hips
{
	OFFSET 0.00000 0.00000 0.00000
	CHANNELS 6 Xposition Yposition Zposition Zrotation Yrotation Xrotation 
	JOINT LHipJoint
	{
		OFFSET 0 0 0
		CHANNELS 3 Zrotation Yrotation Xrotation
		JOINT LeftHip
		{
			OFFSET 1.57358 -1.76629 0.73362
			CHANNELS 3 Zrotation Yrotation Xrotation
			JOINT LeftKnee
			{
				OFFSET 2.40600 -6.61045 0.00000
				CHANNELS 3 Zrotation Yrotation Xrotation
				JOINT LeftAnkle
				{
					OFFSET 2.66168 -7.31291 0.00000
					CHANNELS 3 Zrotation Yrotation Xrotation
					JOINT LeftToe
					{
						OFFSET 0.20870 -0.57341 2.12506
						CHANNELS 3 Zrotation Yrotation Xrotation
						End Site
						{
							OFFSET 0.00000 -0.00000 1.10557
						}
					}
				}
			}
		}
	}
	JOINT RHipJoint
	{
		OFFSET 0 0 0
		CHANNELS 3 Zrotation Yrotation Xrotation
		JOINT RightHip
		{
			OFFSET -1.49299 -1.76629 0.73362
			CHANNELS 3 Zrotation Yrotation Xrotation
			JOINT RightKnee
			{
				OFFSET -2.43663 -6.69460 0.00000
				CHANNELS 3 Zrotation Yrotation Xrotation
				JOINT RightAnkle
				{
					OFFSET -2.62959 -7.22474 0.00000
					CHANNELS 3 Zrotation Yrotation Xrotation
					JOINT RightToe
					{
						OFFSET -0.25784 -0.70841 2.21862
						CHANNELS 3 Zrotation Yrotation Xrotation
						End Site
						{
							OFFSET -0.00000 -0.00000 1.16452
						}
					}
				}
			}
		}
	}
	JOINT lowerback
	{
		OFFSET 0 0 0
		CHANNELS 3 Zrotation Yrotation Xrotation
		JOINT Chest
		{
			OFFSET -0.00034 2.12399 -0.25450
			CHANNELS 3 Zrotation Yrotation Xrotation
			JOINT Chest2
			{
				OFFSET 0.05594 2.14379 -0.03318
				CHANNELS 3 Zrotation Yrotation Xrotation
				JOINT lowerneck
				{
					OFFSET 0 0 0
					CHANNELS 3 Zrotation Yrotation Xrotation
					JOINT Neck
					{
						OFFSET -0.09835 1.62725 0.24211
						CHANNELS 3 Zrotation Yrotation Xrotation
						JOINT Head
						{
							OFFSET 0.10849 1.66041 -0.22648
							CHANNELS 3 Zrotation Yrotation Xrotation
							End Site
							{
								OFFSET 0.04385 1.68267 -0.10541
							}
						}
					}
				}
				JOINT LeftCollar
				{
					OFFSET 0 0 0
					CHANNELS 3 Zrotation Yrotation Xrotation
					JOINT LeftShoulder
					{
						OFFSET 3.29108 0.79398 -0.68179
CHANNELS 3 Zrotation Xrotation Yrotation
						JOINT LeftElbow
						{
OFFSET 0 -5.153100 -0.000000
CHANNELS 3 Zrotation Xrotation Yrotation
							JOINT LeftWrist
							{
OFFSET 0 -3.751380 -0.000000
CHANNELS 3 Zrotation Xrotation Yrotation
								JOINT lhand
								{
									OFFSET 0 0 0
CHANNELS 3 Zrotation Xrotation Yrotation
									JOINT LFingers
									{
OFFSET 0 -0.529170 0.000000
CHANNELS 3 Zrotation Xrotation Yrotation
										End Site
										{
OFFSET 0 -0.426630 0.000000
										}
									}
								}
								JOINT LThumb
								{
OFFSET 0 0.000000 0.000000
CHANNELS 3 Zrotation Xrotation Yrotation
									End Site
									{
OFFSET 0 -0.433150 0.433150
									}
								}
							}
						}
					}
				}
				JOINT RightCollar
				{
					OFFSET 0 0 0
					CHANNELS 3 Zrotation Yrotation Xrotation
					JOINT RightShoulder
					{
						OFFSET -3.07414 1.06285 -0.44338
CHANNELS 3 Zrotation Xrotation Yrotation
						JOINT RightElbow
						{
OFFSET 0 -5.296130 0.000000
CHANNELS 3 Zrotation Xrotation Yrotation
							JOINT RightWrist
							{
OFFSET 0 -3.761440 -0.000000
CHANNELS 3 Zrotation Xrotation Yrotation
								JOINT rhand
								{
									OFFSET 0 0 0
CHANNELS 3 Zrotation Xrotation Yrotation
									JOINT RFingers
									{
OFFSET 0 -0.747320 0.000000
CHANNELS 3 Zrotation Xrotation Yrotation
										End Site
										{
OFFSET 0 -0.602510 0.000000
										}
									}
								}
								JOINT RThumb
								{
OFFSET 0 0.000000 0.000000
CHANNELS 3 Zrotation Xrotation Yrotation
									End Site
									{
OFFSET 0 -0.611710 0.611710
									}
								}
							}
						}
					}
				}
			}
		}
	}
}
MOTION
Frames: 5
Frame Time: 0.008333333333333333
12.011200 17.426400 -26.383900 -4.581900 -6.044900 2.083300 0.000000 0.000000 0.000000 -14.164200 -11.300400 -26.045300 1.861200 8.570800 24.461600 0.071000 1.073700 -5.548300 0.004200 -0.416200 -1.143500 0.000000 0.000000 0.000000 29.260300 -0.110700 12.315400 -1.336000 -7.318800 20.663200 -0.147300 4.619100 -7.082100 -0.176500 2.706600 -7.462800 2.934800 2.205200 5.043700 2.883700 3.216600 -0.520900 1.077500 1.571700 -3.370900 -9.148800 -4.363000 -14.555800 5.995000 -5.293400 22.069900 2.943600 -2.563700 9.810500 -0.000000 -0.000000 0.000000 -3.651400 1.957200 -6.867800 9.703000 -16.273600 1.390600 15.475700 25.739300 -29.997900 0.000000 0.000000 0.000000 -7.125000 0.000000 0.000000 -18.165700 59.975400 6.772400 -0.000000 -0.000000 0.000000 -4.933600 -4.689000 19.294700 -19.575800 -30.127900 -5.316800 -15.005200 0.321600 -12.331500 0.000000 0.000000 0.000000 7.125000 0.000000 -0.000000 8.492500 17.312500 5.643200
12.030308 17.432350 -26.207739 -4.196894 -6.576903 1.856604 0.000000 0.000000 0.000000 -14.746067 -10.914807 -25.406277 1.872179 8.594517 24.534931 0.069240 0.302765 -5.101193 0.002021 -0.283535 -0.778942 0.000000 0.000000 0.000000 28.647676 0.278497 12.017887 -1.594207 -7.958075 22.589992 -0.102883 4.847137 -6.187886 -0.193596 2.832729 -7.813446 2.605106 2.344067 4.800829 2.734357 3.364937 -0.502546 1.106665 1.652070 -3.224658 -9.074799 -4.349004 -14.296336 5.944549 -5.316279 22.335231 2.916782 -2.580126 9.853660 0.000000 0.000000 0.000000 -3.558291 2.122969 -6.397311 9.608550 -16.124928 1.364285 15.172153 25.989043 -29.722093 0.000000 0.000000 0.000000 -7.125000 0.000000 0.000000 -18.288812 59.643443 6.674179 0.000000 0.000000 0.000000 -4.657710 -4.466578 18.987131 -19.275270 -29.758984 -5.166954 -15.363891 0.431638 -12.417402 0.000000 0.000000 0.000000 7.125000 0.000000 0.000000 8.243344 17.199026 5.494695
12.059625 17.441208 -26.002843 -3.670644 -7.546562 1.317875 0.000000 0.000000 0.000000 -15.549840 -10.519748 -24.177603 1.875044 8.600723 24.554171 0.060448 0.741828 -4.995936 0.001262 0.064410 0.177023 0.000000 0.000000 0.000000 27.710308 0.733751 12.088796 -1.878446 -8.598905 24.554376 -0.046633 5.258405 -4.989483 -0.189665 2.804227 -7.734142 2.299009 2.613494 4.510224 2.538835 3.679399 -0.263302 1.073828 1.816483 -2.821014 -8.856851 -4.361783 -14.078926 5.671989 -5.337062 22.241200 2.783068 -2.604801 9.766801 0.000000 0.000000 0.000000 -3.513863 2.129578 -5.853125 9.488205 -15.935011 1.331073 14.580239 26.172323 -29.489424 0.000000 0.000000 0.000000 -7.125000 0.000000 0.000000 -18.747012 59.287822 6.686910 0.000000 0.000000 0.000000 -4.406971 -4.414067 18.435953 -18.866628 -29.251531 -4.966061 -15.491347 0.975140 -12.697554 0.000000 0.000000 0.000000 7.125000 0.000000 0.000000 8.154430 16.903336 5.487298
12.084703 17.454258 -25.806438 -3.132780 -8.205680 0.942791 0.000000 0.000000 0.000000 -16.394985 -10.107459 -23.167638 1.887432 8.627518 24.637019 0.042517 1.580831 -4.840716 0.013698 0.637608 1.752575 0.000000 0.000000 0.000000 26.799285 1.090265 11.827029 -2.198947 -9.257538 26.612657 0.007257 5.538064 -3.594716 -0.166609 2.625260 -7.237385 1.971002 2.798704 4.067349 2.325156 3.879083 -0.022007 1.053292 1.923639 -2.331092 -8.604991 -4.397275 -14.095056 5.438840 -5.387732 22.175559 2.650850 -2.632274 9.736317 0.000000 0.000000 0.000000 -3.456465 1.999908 -5.323578 9.342375 -15.704263 1.291325 14.166327 26.505510 -29.684968 0.000000 0.000000 0.000000 -7.125000 0.000000 0.000000 -19.326500 59.376706 6.948140 0.000000 0.000000 0.000000 -4.121070 -4.379420 17.799486 -18.502536 -28.795223 -4.789192 -15.288637 1.755327 -12.557295 0.000000 0.000000 0.000000 7.125000 0.000000 0.000000 8.295482 17.061226 5.554472
12.098843 17.468137 -25.643495 -2.714336 -8.181033 0.809406 0.000000 0.000000 0.000000 -17.142606 -9.667006 -22.669075 1.917469 8.691869 24.836254 0.028273 1.906263 -4.464441 0.030532 1.121892 3.084336 0.000000 0.000000 0.000000 26.172526 1.184191 11.047009 -2.549600 -9.918098 28.720182 0.045442 5.390368 -1.981887 -0.124393 2.252262 -6.204242 1.603409 2.774111 3.831060 2.178798 3.815780 0.010673 1.124498 1.897406 -2.177628 -8.563608 -4.405377 -14.240670 5.481537 -5.417386 22.403686 2.655431 -2.636735 9.847188 0.000000 0.000000 0.000000 -3.429699 1.967629 -4.832159 9.226213 -15.520206 1.259948 13.782809 27.050972 -30.895715 0.000000 0.000000 0.000000 -7.125000 0.000000 0.000000 -20.700345 60.410111 8.017414 0.000000 0.000000 0.000000 -3.812502 -4.186321 17.117128 -18.231215 -28.452020 -4.659003 -14.859413 2.606698 -12.074281 0.000000 0.000000 0.000000 7.125000 0.000000 0.000000 8.596767 17.584118 5.660715
